<svg preserveAspectRatio="none" width="100%" height="100%" overflow="visible" style="display: block;" viewBox="0 0 109.25 107" fill="none" xmlns="http://www.w3.org/2000/svg">
<path id="Icon" d="M13.5 105.25H95.75C102.239 105.25 107.5 100.101 107.5 93.75V13.25C107.5 6.89873 102.239 1.75 95.75 1.75H13.5C7.01065 1.75 1.75 6.89873 1.75 13.25V93.75C1.75 100.101 7.01065 105.25 13.5 105.25ZM13.5 105.25L78.125 42L107.5 70.75M42.875 33.375C42.875 38.1385 38.9295 42 34.0625 42C29.1955 42 25.25 38.1385 25.25 33.375C25.25 28.6115 29.1955 24.75 34.0625 24.75C38.9295 24.75 42.875 28.6115 42.875 33.375Z" stroke="var(--stroke-0, white)" stroke-width="3.5" stroke-linecap="round" stroke-linejoin="round"/>
</svg>
